<svg width="720" height="512" xmlns="http://www.w3.org/2000/svg">
 <title>Layer 1</title>

 <g>
  <title>background</title>
  <rect x="-1" y="-1" width="722" height="514" id="canvas_background" fill="none"/>
 </g>
 <g>
  <title>Layer 1</title>
  <g id="open_bracket">
   <path id="path_1" d="m161.1,442l-1,0c-27,-2 -41,-6.8 -42.9,-40.7c-0.8,-13.5 0,-26.4 0.8,-40.5c0.9,-14.7 2.7,-28.9 3.7,-42.8c2.1,-31.6 -3,-49.4 -23.6,-61c0,0 0,0 0,0c0,0 0,0 0,0c20.6,-11.6 25.7,-29.3 23.6,-61c-0.9,-13.9 -2.8,-28.1 -3.7,-42.8c-0.8,-14.1 -1.6,-27.1 -0.8,-40.5c1.9,-33.9 15.9,-38.7 42.9,-40.7l1,0c10.3,0 18.7,-7.7 19.6,-17.8c0.1,-0.5 0.1,-0.9 0.1,-1.5c0,-0.3 0,-0.7 -0.1,-1c-0.5,-10.4 -9.1,-18.6 -19.6,-18.6c-0.1,0 -0.1,0 -0.2,0c-0.1,0 -0.2,0 -0.3,0l-7.2,0c-45.8,0 -79.9,20.3 -79.9,77c0,15.2 1.4,30.8 2.9,46.1c1.5,15 2.9,31.1 2.9,45s-1.6,34.1 -36.7,34.1c-11.8,-0.1 -21.6,9.7 -21.6,21.7c0,0 0,0 0,0s0,0 0,0c0,12 9.8,21.7 21.7,21.7c35.1,0 36.7,20.3 36.7,34.1s-1.4,29.9 -2.9,45c-1.5,15.3 -2.9,30.9 -2.9,46.1c0,56.8 34.1,77 79.9,77l7.2,0c0.1,0 0.2,0 0.3,0c0.1,0 0.1,0 0.2,0c10.5,0 19.1,-8.3 19.6,-18.6c0,-0.3 0.1,-0.7 0.1,-1c0,-0.6 0,-1 -0.1,-1.5c-0.9,-10.1 -9.4,-17.8 -19.7,-17.8z" class="st0"/>
  </g>
  <g id="bitcoin">
   <path id="path_2" d="m515.5,280.2c-5,-11.5 -12.7,-21.6 -28.1,-30.1c-8.2,-4.5 -16.1,-7.8 -25.4,-10c5.4,-2.5 10,-5.4 16.3,-11c7.5,-6.6 13.1,-15.7 15.6,-23.3c2.6,-7.5 4.1,-18 3.5,-28.2c-1.1,-16.8 -4.4,-33.1 -13.2,-44.8c-8.8,-11.7 -21.2,-20.7 -37.6,-27c-12.6,-4.8 -25.5,-7.8 -45.5,-8.9l0,-63.9l-40,0l0,64l-32,0l0,-64l-41,0l0,64l-87.1,0l0,48l27.9,0c8.7,0 14.6,0.8 17.6,2.3c3.1,1.5 5.3,3.5 6.5,6c1.3,2.5 1.9,8.4 1.9,17.5l0,173.2c0,9 -0.6,14.8 -1.9,17.4c-1.3,2.6 -2,4.9 -5.1,6.3c-3.1,1.4 -3.2,1.3 -11.8,1.3l-26.4,0l-8.7,48l87,0l0,64l41,0l0,-64l32,0l0,64l40,0l0,-64.4c26,-1.3 44.5,-4.7 59.4,-10.3c19.3,-7.2 34.1,-17.7 44.7,-31.5c10.6,-13.8 14.9,-34.9 15.8,-51.2c0.7,-14.5 -0.9,-33.2 -5.4,-43.4zm-186.5,-129.2l32,0l0,74l-32,0l0,-74zm0,212l0,-90l32,0l0,90l-32,0zm72,-208.1c6,2.5 9.9,7.5 13.8,12.7c4.3,5.7 6.5,13.3 6.5,21.4c0,7.8 -2.9,14.5 -7.5,20.5c-3.8,4.9 -6.8,8.3 -12.8,11.1l0,-65.7zm28.8,186.7c-7.8,6.9 -12.3,10.1 -22.1,13.8c-2,0.8 -4.7,1.4 -6.7,1.9l0,-82.8c5,0.8 7.6,1.8 11.3,3.4c7.8,3.3 15.2,6.9 19.8,13.2c4.6,6.3 8,15.6 8,24.7c0,10.9 -2.8,19.2 -10.3,25.8z"/>
  </g>
  <g id="close_bracket">
   <path id="path_3" d="m560.7,441l1,0c27,-2 41,-6.8 42.9,-40.7c0.8,-13.5 0,-26.4 -0.8,-40.5c-0.9,-14.7 -2.7,-28.9 -3.7,-42.8c-2.1,-31.6 3,-49.4 23.6,-61c0,0 0,0 0,0c0,0 0,0 0,0c-20.6,-11.6 -25.7,-29.3 -23.6,-61c0.9,-13.9 2.8,-28.1 3.7,-42.8c0.8,-14.1 1.6,-27.1 0.8,-40.5c-1.9,-33.9 -15.9,-38.7 -42.9,-40.7l-1,0c-10.3,0 -18.7,-7.7 -19.6,-17.8c-0.1,-0.5 -0.1,-0.9 -0.1,-1.5c0,-0.3 0,-0.7 0.1,-1c0.5,-10.4 9.1,-18.6 19.6,-18.6c0.1,0 0.1,0 0.2,0c0.1,0 0.2,0 0.3,0l7.2,0c45.8,0 79.9,20.3 79.9,77c0,15.2 -1.4,30.8 -2.9,46.1c-1.5,15 -2.9,31.1 -2.9,45s1.7,34.1 36.8,34.1c11.9,0 21.8,9.7 21.8,21.7c0,0 0,0 0,0s0,0 0,0c0,12 -9.9,21.7 -21.8,21.7c-35.1,0 -36.7,20.3 -36.7,34.1s1.4,29.9 2.8,45c1.5,15.3 2.9,30.9 2.9,46.1c0,56.8 -34.1,77 -79.9,77l-7.2,0c-0.1,0 -0.2,0 -0.3,0c-0.1,0 -0.1,0 -0.2,0c-10.5,0 -19.1,-8.3 -19.6,-18.6c0,-0.3 -0.1,-0.7 -0.1,-1c0,-0.6 0,-1 0.1,-1.5c0.8,-10.1 9.3,-17.8 19.6,-17.8z" class="st0"/>
  </g>
 </g>
</svg>